#!OML:ASF F:\VICON\USERDATA\INSTALL\Justin_Nancy\Justin_Nancy.ASF
:FULLY-SPECIFIED
:DEGREES
339
root 0.491221 21.5421 9.57422 -4.83428 5.25403 2.2507
lowerback 13.3861 -0.51409 -0.999821
upperback 2.1132 -0.609624 3.56598
thorax -5.22807 -0.251362 4.44
lowerneck -11.7145 -3.91968 -11.7176
upperneck 27.3479 -4.5649 6.14597
head 11.2151 -2.54879 3.65795
rclavicle 1.22253e-014 -3.18055e-014
rhumerus -65.3626 -4.32762 -66.598
rradius 35.4022
rwrist -5.9378
rhand -25.5284 11.6308
rfingers 7.12502
rthumb 1.00119 -18.3466
lclavicle 1.22253e-014 -3.18055e-014
lhumerus -53.3586 7.62168 62.4751
lradius 29.2516
lwrist -5.28608
lhand -19.7777 17.1558
lfingers 7.12502
lthumb 6.55445 47.0343
rfemur -25.8714 -2.40913 14.7909
rtibia 28.8522
rfoot 15.6815 -9.99801
rtoes 8.5663
lfemur -22.6058 -2.13023 -19.5109
ltibia 19.5546
lfoot 17.463 0.828898
ltoes -18.0869
340
root 0.489122 21.2701 9.98913 -5.34383 5.22225 2.50546
lowerback 12.2571 -0.50426 -1.18172
upperback 2.09597 -0.646471 3.28035
thorax -4.62106 -0.279018 4.21835
lowerneck -10.8567 -3.75253 -11.4657
upperneck 27.1066 -4.49268 6.182
head 10.9349 -2.49613 3.64083
rclavicle 3.18055e-015 0
rhumerus -68.6748 -2.30424 -67.4691
rradius 37.266
rwrist -7.29533
rhand -25.0178 11.7765
rfingers 7.12502
rthumb 1.49437 -18.198
lclavicle 3.18055e-015 0
lhumerus -56.0727 4.93572 61.9107
lradius 31.2695
lwrist -3.50927
lhand -20.4746 13.959
lfingers 7.12502
lthumb 5.88161 43.8574
rfemur -24.6506 -1.31277 14.0742
rtibia 27.1402
rfoot 16.5276 -10.1095
rtoes 8.19251
lfemur -22.1627 -3.11819 -19.5391
ltibia 18.8965
lfoot 17.8865 0.917636
ltoes -19.4701
341
root 0.485254 20.9784 10.3942 -5.89444 5.02289 2.26486
lowerback 11.3949 -0.444303 -0.928655
upperback 2.00246 -0.545004 3.17461
thorax -4.25447 -0.237958 3.92896
lowerneck -10.3588 -3.69283 -11.1056
upperneck 27.1019 -4.49444 5.99026
head 10.8186 -2.49049 3.51264
rclavicle 1.83876e-014 1.11319e-014
rhumerus -71.9375 -0.594374 -68.0098
rradius 39.0031
rwrist -8.43186
rhand -24.4119 12.5766
rfingers 7.12502
rthumb 2.07952 -17.393
lclavicle 1.83876e-014 1.11319e-014
lhumerus -58.5889 2.42923 61.4254
lradius 33.2139
lwrist -2.06868
lhand -13.3568 30.4025
lfingers 7.12502
lthumb 12.7492 59.9933
rfemur -23.4997 0.0235363 13.9941
rtibia 25.5814
rfoot 17.6313 -10.0623
rtoes 7.08518
lfemur -21.9259 -4.34004 -18.9083
ltibia 18.5994
lfoot 18.5278 1.23231
ltoes -18.8171
342
root 0.477654 20.6785 10.7963 -6.58854 5.012 1.86709
lowerback 10.6042 -0.481192 -0.633124
upperback 1.96895 -0.568232 3.14339
thorax -3.8535 -0.258591 3.71557
lowerneck -10.0634 -3.67456 -10.7412
upperneck 27.2138 -4.49805 5.66917
head 10.7848 -2.49853 3.33652
rclavicle -5.96354e-016 1.27222e-014
rhumerus -74.8603 0.929824 -68.1966
rradius 40.4548
rwrist -9.37894
rhand -23.4007 13.6616
rfingers 7.12502
rthumb 3.05613 -16.2962
lclavicle -5.96354e-016 1.27222e-014
lhumerus -61.1197 0.407085 60.6445
lradius 35.1628
lwrist -1.33869
lhand -17.4358 20.8168
lfingers 7.12502
lthumb 8.81485 50.6127
rfemur -22.2107 1.18019 14.18
rtibia 24.2751
rfoot 18.6024 -10.1636
rtoes 7.27276
lfemur -21.6674 -5.34151 -18.2625
ltibia 18.716
lfoot 19.002 1.31932
ltoes -16.9462
343
root 0.461457 20.375 11.2031 -7.43156 5.3106 1.70749
lowerback 9.63152 -0.625359 -0.789538
upperback 2.17391 -0.792624 3.10684
thorax -3.08419 -0.380871 3.77137
lowerneck -9.99534 -3.64686 -10.6456
upperneck 27.3119 -4.46364 5.56693
head 10.7999 -2.48824 3.28937
rclavicle 4.77083e-015 1.27222e-014
rhumerus -76.9955 2.19798 -67.9051
rradius 41.4793
rwrist -9.83863
rhand -21.9402 14.8779
rfingers 7.12502
rthumb 4.46654 -15.055
lclavicle 4.77083e-015 1.27222e-014
lhumerus -63.5275 -1.19474 59.693
lradius 37.2663
lwrist -0.647583
lhand -18.6405 16.7745
lfingers 7.12502
lthumb 7.6521 46.616
rfemur -20.7038 1.8666 14.2514
rtibia 23.3408
rfoot 19.4746 -10.2981
rtoes 9.14846
lfemur -21.1301 -5.75126 -18.1668
ltibia 19.0708
lfoot 19.1925 0.876396
ltoes -15.8405
344
root 0.455223 20.0467 11.5942 -8.3098 4.66932 1.72795
lowerback 8.95011 -0.432585 -0.965031
upperback 2.38286 -0.565628 3.04302
thorax -2.50497 -0.277019 3.76226
lowerneck -10.0158 -3.58536 -10.9501
upperneck 27.4831 -4.43208 5.98517
head 10.8815 -2.46105 3.50334
rclavicle 3.35449e-016 1.11319e-014
rhumerus -78.5423 3.21265 -67.0429
rradius 41.9849
rwrist -9.7429
rhand -20.3516 16.6624
rfingers 7.12502
rthumb 6.00037 -13.2327
lclavicle 3.35449e-016 1.11319e-014
lhumerus -65.7658 -2.51703 58.7037
lradius 39.4127
lwrist -0.215535
lhand -18.4062 16.6835
lfingers 7.12502
lthumb 7.8783 46.5167
rfemur -19.6162 2.16852 14.5042
rtibia 22.8687
rfoot 20.9242 -9.21044
rtoes 11.0408
lfemur -20.3208 -5.79429 -18.1097
ltibia 19.4598
lfoot 19.3429 1.59596
ltoes -16.0435
345
root 0.450113 19.7121 11.989 -9.27311 4.2447 1.78995
lowerback 8.37197 -0.255215 -1.16778
upperback 2.55055 -0.356874 2.93817
thorax -2.02561 -0.180749 3.73579
lowerneck -10.0819 -3.58327 -11.0206
upperneck 27.6732 -4.48474 6.2335
head 10.9779 -2.46692 3.60442
rclavicle -1.83379e-014 2.54444e-014
rhumerus -80.0435 3.97541 -65.7438
rradius 42.4301
rwrist -9.45407
rhand -18.9539 18.3401
rfingers 7.12502
rthumb 7.34966 -11.5122
lclavicle -1.83379e-014 2.54444e-014
lhumerus -67.9863 -3.72161 57.5565
lradius 41.5598
lwrist -0.353665
lhand -19.0659 15.2092
lfingers 7.12502
lthumb 7.24157 45.0653
rfemur -18.4388 1.90419 14.8057
rtibia 22.8077
rfoot 22.3608 -7.90774
rtoes 11.4949
lfemur -19.2755 -5.49202 -18.2634
ltibia 19.9225
lfoot 19.6556 1.82539
ltoes -16.9109
346
root 0.444196 19.3717 12.3716 -10.2677 3.855 1.83407
lowerback 7.90088 -0.103942 -1.38902
upperback 2.6906 -0.179758 2.81736
thorax -1.63248 -0.0992752 3.71221
lowerneck -10.1511 -3.57038 -10.8174
upperneck 27.8789 -4.52146 6.2635
head 11.0669 -2.46207 3.57995
rclavicle 8.69683e-015 -2.14687e-014
rhumerus -81.4206 4.53247 -64.0526
rradius 43.1059
rwrist -8.79618
rhand -18.2236 18.3118
rfingers 7.12502
rthumb 8.05454 -11.5147
lclavicle 8.69683e-015 -2.14687e-014
lhumerus -70.2372 -4.65273 56.1547
lradius 43.6464
lwrist -0.438869
lhand -20.2468 12.8783
lfingers 7.12502
lthumb 6.10153 42.7705
rfemur -17.2486 1.5508 15.1898
rtibia 22.9942
rfoot 23.8219 -6.67482
rtoes 11.0142
lfemur -18.2505 -5.49585 -18.3322
ltibia 20.6919
lfoot 20.4506 2.09543
ltoes -15.2783
347
root 0.434047 19.0252 12.7417 -11.3597 3.48668 1.65902
lowerback 7.50186 0.0394399 -1.46363
upperback 2.96594 0.00132697 2.82124
thorax -1.14045 -0.0191354 3.73853
lowerneck -10.2903 -3.60835 -10.9471
upperneck 27.9017 -4.61461 6.54365
head 11.1223 -2.4849 3.69395
rclavicle 6.5102e-015 -2.54444e-014
rhumerus -82.284 4.76534 -61.8169
rradius 43.6572
rwrist -7.80678
rhand -18.7168 17.7364
rfingers 7.12502
rthumb 7.57854 -12.1078
lclavicle 6.5102e-015 -2.54444e-014
lhumerus -72.0901 -5.00684 54.6042
lradius 45.4623
lwrist -0.109865
lhand -21.0113 11.7258
lfingers 7.12502
lthumb 5.36343 41.6379
rfemur -15.899 1.32172 15.8294
rtibia 23.2525
rfoot 25.4093 -5.36328
rtoes 11.7239
lfemur -17.3683 -5.97576 -18.0639
ltibia 21.9275
lfoot 21.3228 2.11573
ltoes -11.3567
348
root 0.420928 18.672 13.111 -12.7277 2.76764 0.865402
lowerback 7.20659 0.281062 -0.951085
upperback 3.4537 0.351279 3.04965
thorax -0.498777 0.145243 3.6566
lowerneck -10.4785 -3.73173 -11.0396
upperneck 27.6143 -4.79568 6.73963
head 11.0769 -2.54797 3.75032
rclavicle -2.48978e-014 7.15625e-015
rhumerus -82.8686 4.6487 -59.3367
rradius 44.2553
rwrist -7.52503
rhand -20.2481 17.3726
rfingers 7.12502
rthumb 6.1003 -12.5196
lclavicle -2.48978e-014 7.15625e-015
lhumerus -73.3533 -4.7999 52.8995
lradius 46.9976
lwrist 0.763938
lhand -21.2133 11.7838
lfingers 7.12502
lthumb 5.16836 41.7008
rfemur -14.3389 1.3856 17.2861
rtibia 23.7883
rfoot 26.8757 -3.61248
rtoes 13.7912
lfemur -16.4152 -6.57739 -17.0102
ltibia 23.6371
lfoot 21.7206 1.49569
ltoes -6.99075
349
root 0.406959 18.3053 13.4789 -14.3685 1.54096 -0.691159
lowerback 7.26515 0.569764 0.32684
upperback 3.92089 0.809732 3.53619
thorax -0.0710579 0.379007 3.40696
lowerneck -10.4663 -3.78876 -10.9764
upperneck 27.249 -4.92 6.8831
head 10.9498 -2.57807 3.76764
rclavicle 1.28216e-014 -2.46493e-014
rhumerus -83.285 4.49702 -56.9735
rradius 44.9813
rwrist -8.37036
rhand -21.9321 15.8025
rfingers 7.12502
rthumb 4.47431 -14.1303
lclavicle 1.28216e-014 -2.46493e-014
lhumerus -74.5995 -4.41157 51.2731
lradius 48.6175
lwrist 2.48093
lhand -20.3163 15.4401
lfingers 7.12502
lthumb 6.03442 45.3341
rfemur -12.7327 1.88862 19.7805
rtibia 24.9879
rfoot 27.094 -1.90931
rtoes 14.2907
lfemur -15.321 -6.75646 -15.0666
ltibia 25.815
lfoot 21.4741 -0.206723
ltoes -5.72295
350
root 0.396479 17.9202 13.8258 -15.6153 0.716823 -1.42302
lowerback 7.42229 0.751659 0.824816
upperback 4.05459 1.08417 3.73254
thorax -0.0297439 0.520968 3.30921
lowerneck -10.2477 -3.71643 -11.0445
upperneck 27.02 -4.92444 7.26324
head 10.8292 -2.54661 3.91667
rclavicle -1.70955e-014 -2.06736e-014
rhumerus -83.2244 4.33689 -54.7655
rradius 44.9562
rwrist -9.85982
rhand -23.9053 14.4258
rfingers 7.12502
rthumb 2.56885 -15.5385
lclavicle -1.70955e-014 -2.06736e-014
lhumerus -75.892 -3.7785 49.4457
lradius 49.6205
lwrist 3.79964
lhand -19.1691 22.1151
lfingers 7.12502
lthumb 7.14193 51.9746
rfemur -11.8909 2.12695 21.2505
rtibia 27.3893
rfoot 24.3798 -1.16515
rtoes 14.1447
lfemur -14.762 -6.86671 -14.1721
ltibia 28.3472
lfoot 20.3678 -2.53809
ltoes -9.19337
351
root 0.392093 17.5196 14.1532 -16.3989 0.562392 -1.24586
lowerback 7.31342 0.780527 0.462605
upperback 4.0762 1.09478 3.54058
thorax 0.048845 0.522135 3.31481
lowerneck -10.3351 -3.65159 -11.2473
upperneck 26.9231 -4.95662 7.91149
head 10.8324 -2.50801 4.18584
rclavicle -1.0635e-014 -3.73715e-014
rhumerus -82.4894 3.83738 -52.7271
rradius 44.0849
rwrist -11.6499
rhand -26.1285 14.6543
rfingers 7.12502
rthumb 0.421598 -15.325
lclavicle -1.0635e-014 -3.73715e-014
lhumerus -76.6919 -2.54817 47.1059
lradius 49.1366
lwrist 3.82852
lhand -19.3854 25.362
lfingers 7.12502
lthumb 6.93315 55.2284
rfemur -11.7241 1.50543 21.5059
rtibia 31.0979
rfoot 14.6897 0.907487
rtoes 22.4382
lfemur -14.796 -7.50364 -14.4641
ltibia 31.2293
lfoot 16.4442 -4.00912
ltoes -19.8962
352
root 0.390394 17.1364 14.4614 -17.3209 0.586901 -0.974788
lowerback 7.2394 0.757699 9.84357e-005
upperback 4.35372 1.02524 3.33588
thorax 0.376185 0.477606 3.37211
lowerneck -10.7909 -3.68411 -11.4034
upperneck 26.6371 -5.04314 8.40668
head 10.8411 -2.49678 4.37479
rclavicle 6.4605e-015 0
rhumerus -81.2888 2.80965 -50.7808
rradius 43.1658
rwrist -13.0817
rhand -27.9734 14.268
rfingers 7.12502
rthumb -1.36022 -15.7074
lclavicle 6.4605e-015 0
lhumerus -77.0174 -0.958568 45.3226
lradius 48.2706
lwrist 3.85538
lhand -20.4347 24.237
lfingers 7.12502
lthumb 5.92017 54.1343
rfemur -11.5588 0.38861 21.5952
rtibia 35.6395
rfoot 4.23558 3.23816
rtoes 19.0189
lfemur -14.6029 -8.28919 -14.9832
ltibia 34.5903
lfoot 8.63426 -4.25759
ltoes -8.33889
353
root 0.383136 16.8102 14.7409 -18.3654 0.386485 -1.0944
lowerback 7.50299 0.752358 -0.043981
upperback 4.56973 1.01398 3.31358
thorax 0.454573 0.469083 3.37403
lowerneck -10.8052 -3.66295 -11.5131
upperneck 25.9876 -5.0095 8.61301
head 10.6057 -2.46362 4.45504
rclavicle 2.18663e-015 -1.98785e-014
rhumerus -79.9894 1.70574 -49.1371
rradius 42.0699
rwrist -13.8778
rhand -29.2778 13.0573
rfingers 7.12502
rthumb -2.61999 -16.9064
lclavicle 2.18663e-015 -1.98785e-014
lhumerus -77.3369 0.36821 44.6901
lradius 47.5575
lwrist 4.68506
lhand -21.0075 21.9783
lfingers 7.12502
lthumb 5.36708 51.8903
rfemur -11.6435 -0.0927853 22.142
rtibia 40.4066
rfoot -0.646726 2.67352
rtoes 2.69218
lfemur -14.3556 -8.46224 -15.0519
ltibia 38.506
lfoot 0.993848 -4.26086
ltoes -12.9956
